<?xml version="1.0" encoding="UTF-8"?>
<svg id="Layer_1" xmlns="http://www.w3.org/2000/svg" version="1.1" viewBox="0 0 1123.40581 132.627882">
  <!-- Generator: Adobe Illustrator 29.8.2, SVG Export Plug-In . SVG Version: 2.1.1 Build 3)  -->
  <defs>
    <style>
      .st0 {
        fill: #000037;
      }
    </style>
  </defs>
  <path class="st0" d="M596.4056232,18.8849316h-63.0006318l.0001807-16.9216106c0-1.0843123-.8790088-1.963321-1.963321-1.963321h-17.1792393c-1.0842126,0-1.9631405.8789279-1.9631405,1.9631405v76.2533494c0,7.0843086,2.7656281,13.8886069,7.7076835,18.9633272l26.4888897,27.1584717c5.1150312,5.2525094,12.1348424,8.2149389,19.4655889,8.2149389h30.4161935c1.0869041,0,1.9680139-.8811098,1.9680139-1.9680139v-17.1736439c0-1.0869041-.8811098-1.9680139-1.9680139-1.9680139h-35.7936894c-7.1941075,0-14.0921339-2.8645307-19.1699731-7.9606795l-.0500577-.0502382c-5.0970063-5.1153849-7.9589347-12.0423142-7.9589347-19.263577v-44.174037h63.0268528c1.0724226,0,1.9417929-.8693703,1.9417929-1.9417929l-.0001807-17.200286c0-1.0869041-.8811098-1.9680139-1.9680139-1.9680139Z"/>
  <path class="st0" d="M207.1385386,18.8849316h-23.3170241c-7.3307465,0-14.3505577,2.9628507-19.4656491,8.2149389l-26.4887694,27.1584717c-4.9421155,5.0747203-7.7077436,11.8793796-7.7077436,18.9636882v24.8724831c0,19.0310134,15.4247528,34.4587143,34.4520961,34.4587143h23.3171444c7.3307465,0,14.3505577-2.9624295,19.4655288-8.2149389l26.4888295-27.1584717c4.9421155-5.0747203,7.7078038-11.8790186,7.7078038-18.9637484v-24.8720017c0-19.0314346-15.4248129-34.4591355-34.4522165-34.4591355ZM220.4849941,84.2881345c0,7.192638-2.8692602,14.0881162-7.9716296,19.15762l-.0373628.0371221c-5.1319624,5.0989063-12.0725868,7.9606795-19.3069413,7.9606795h-26.6515209c-8.4237156,0-15.2524863-6.8287707-15.2524863-15.2524863v-28.9676011c0-7.1863031,2.8458253-14.0801762,7.9150694-19.17387l.093923-.094376c5.0710486-5.095507,11.9635628-7.9601981,19.152424-7.9601981h26.8060381c8.4237156,0,15.2524863,6.8287707,15.2524863,15.2524863v29.0406237Z"/>
  <path class="st0" d="M334.653392,18.8849316h-19.5140222c-7.3307465,0-14.12808,2.5640274-20.1432331,8.2149389l-16.2162903,15.2343289V1.963321c0-1.0843029-.8788978-1.963321-1.9631405-1.963321h-17.1794198c-1.0841825,0-1.9631405.8790181-1.9631405,1.963321v96.1311925c0,19.0310134,15.4247528,34.4587143,34.4521563,34.4587143h23.3170842c7.3307465,0,14.3505577-2.9624295,19.4655889-8.2149389l26.4888295-27.1584717c4.9420554-5.0747203,7.7077436-11.8790186,7.7077436-18.9637484v-24.8720017c0-19.0314346-15.4247528-34.4591355-34.4521563-34.4591355ZM347.9998475,84.2146905c0,7.2471662-2.8940222,14.1942734-8.0391807,19.2980721l-.000016.0000159c-5.1213597,5.0801913-12.0427513,7.9307776-19.256396,7.9307776h-26.671922c-8.4237156,0-15.2524863-6.8287707-15.2524863-15.2524863v-28.9140682c0-7.2129109,2.8533677-14.1329459,7.9372664-19.249591l.0000159-.000016c5.1083549-5.1412588,12.0565492-8.0323701,19.3041579-8.0323701h26.6801981c8.4490525,0,15.2983628,6.8493103,15.2983628,15.2983628v28.9213033Z"/>
  <path class="st0" d="M893.1291647,18.8399278h-17.1791791c-1.0843029,0-1.9632007.878958-1.9632007,1.9632007v109.7820854c0,1.08689.8810638,1.9680139,1.9680139,1.9680139h17.169673c1.0869501,0,1.9680139-.8811239,1.9680139-1.9680139V20.8032488c0-1.0843029-.8790181-1.963321-1.963321-1.963321Z"/>
  <path class="st0" d="M1005.6294708,18.8849316h-57.5550103c-19.0312218,0-34.4590753,15.4278535-34.4590753,34.4590753v24.8724831c0,7.0843086,2.7655679,13.8886069,7.7076835,18.9637484l26.4889499,27.1580505c5.1150312,5.2525094,12.1347822,8.2149389,19.4655889,8.2149389h38.3519837c1.0868376,0,1.9678936-.881056,1.9678936-1.9678936v-17.1741854c0-1.0869041-.8811098-1.9680139-1.9680139-1.9680139h-43.6546423c-7.179436,0-14.0686383-2.8340831-19.1697839-7.8860742l-.1123892-.1113062c-5.101518-5.0523599-7.9716898-11.9344015-7.9716898-19.1143616v-29.0838821c0-8.4237156,6.8287707-15.2524863,15.2524863-15.2524863h55.6561391c1.0868376,0,1.9678936-.881056,1.9678936-1.9678936v-17.1741854c0-1.0869041-.8811098-1.9680139-1.9680139-1.9680139Z"/>
  <path class="st0" d="M819.8607466,18.734217h-24.8617736c-7.0831655,0-13.8862003,2.7658086-18.9600783,7.7090071l-27.1523348,26.4949063c-5.2513663,5.1157532-8.2134348,12.1371287-8.2134348,19.4691387v58.1778245c0,1.0869705.8811637,1.9681342,1.9681342,1.9681342h17.1697933c1.0869705,0,1.9681342-.8811637,1.9681342-1.9681342v-63.5670076c0-7.1918931,2.8638454-14.0877542,7.958694-19.1637609l.0813438-.0810429c5.0970049-5.078155,11.9987232-7.9294536,19.1936602-7.9294536h28.9483288c8.4237156,0,15.2524863,6.8287707,15.2524863,15.2524863v75.488899c0,1.0869041.8811098,1.9680139,1.9680139,1.9680139h17.169673c1.0869041,0,1.9680139-.8811098,1.9680139-1.9680139V53.1928711c0-19.0309892-15.427665-34.4586542-34.4586542-34.4586542Z"/>
  <path class="st0" d="M686.4850563,18.8849316h-23.3170241c-7.3306864,0-14.3505577,2.9628507-19.4655889,8.2149389l-26.4888295,27.1584717c-4.9420554,5.0747203-7.7077436,11.8793796-7.7077436,18.9636882v24.8724831c0,19.0310134,15.4275806,34.4587143,34.4586542,34.4587143h19.5075845c7.3306864,0,13.0033808-3.064729,19.4654686-8.2149389l16.8939946-13.4643197v19.7112447c0,1.08689.8810638,1.9680139,1.9680139,1.9680139h17.169673c1.0869501,0,1.9680139-.8811239,1.9680139-1.9680139V50.8202441h-.1019204c-1.2931975-17.8514686-16.1723694-31.9353126-34.3502961-31.9353126ZM699.8315719,84.3096948c0,7.1863243-2.8697262,14.0751087-7.9716898,19.1360596l-.1060134.1051612c-5.0967325,5.0557619-11.9848409,7.8926404-19.163797,7.8926404h-26.7259544c-8.4237156,0-15.2524863-6.8287707-15.2524863-15.2524863v-28.9316517c0-7.2246013,2.8669763-14.153939,7.9714491-19.266592l.0117491-.0117679c5.1047498-5.1129305,12.0331882-7.9860337,19.2581816-7.9860337h26.7260748c8.4237156,0,15.2524863,6.8287707,15.2524863,15.2524863v29.0621841Z"/>
  <path class="st0" d="M461.9659947,18.8849316h-23.3170241c-7.3307465,0-14.3505577,2.9628507-19.4656491,8.2149389l-26.4887694,27.1584717c-4.9421155,5.0747203-7.7077436,11.8793796-7.7077436,18.9636882v24.8724831c0,19.0310134,15.4247528,34.4587143,34.4520961,34.4587143h23.3171444c7.3307465,0,14.3505577-2.9624295,19.4655288-8.2149389l26.4888295-27.1584717c4.9421155-5.0747203,7.7078038-11.8790186,7.7078038-18.9637484v-24.8720017c0-19.0314346-15.4248129-34.4591355-34.4522165-34.4591355ZM475.3124502,84.2881345c0,7.192638-2.8692602,14.0881162-7.9716296,19.15762l-.0373628.0371221c-5.1319624,5.0989063-12.0725868,7.9606795-19.3069413,7.9606795h-26.6515209c-8.4237156,0-15.2524863-6.8287707-15.2524863-15.2524863v-28.9676011c0-7.1863031,2.8458253-14.0801762,7.9150694-19.17387l.093923-.094376c5.0710486-5.095507,11.9635628-7.9601981,19.152424-7.9601981h26.8060381c8.4237156,0,15.2524863,6.8287707,15.2524863,15.2524863v29.0406237Z"/>
  <path class="st0" d="M113.3984884,111.3199766h-28.8619443c-7.2313254,0-14.1642822-2.8817742-19.2652803-8.0073294l-8.0559524-8.0952437,50.0473433-49.9913531C123.9748574,28.5539985,112.1674417,0,88.5612051,0h-34.5847279c-7.3736337,0-14.4346557,2.9802481-19.579611,8.2629686L7.7529179,35.5805178C2.7818268,40.6851994,0,47.5295052,0,54.6552351v75.8192694c0,1.1077702.8958425,2.0070507,2.0036127,2.011471l17.2641233.0672864c1.1148917.0044203,2.0208027-.8985438,2.0199432-2.0134356l-.0583231-81.9182675c0-7.228133,2.8624968-14.1625632,7.9614076-19.2861538l.0945448-.0947904c5.1091019-5.1258008,12.0486892-8.0068382,19.2859083-8.0068382h37.9421728c5.3767742,0,8.0694588,6.5007521,4.2675306,10.3026803l-45.4900391,45.5079658c-5.953129,5.953129-5.9965951,15.5917857-.0972461,21.5984491l25.189432,25.6474216c5.1449553,5.2832117,12.2058545,8.2629686,19.579611,8.2629686h23.4358104c1.0932815,0,1.9795468-.8862653,1.9795468-1.9795468v-17.2741917c0-1.0932815-.8862653-1.9795468-1.9795468-1.9795468Z"/>
  <path class="st0" d="M1044.0056428,39.9145031h72.4001671c1.1045695,0,2-.8954305,2-2v-17.1038045c0-1.1053734-.8966855-2.0011365-2.0020583-1.9999989l-63.2584692.065102c-27.6118632.0229862-37.3901044,36.576748-13.4775182,50.3826794l66.7387854,38.531637c1.7720662,1.0231024,1.0462059,3.732051-.9999996,3.732051h-77.2861658c-1.1045695,0-2,.8954305-2,2v17.1057129c0,1.1045695.8954305,2,2,2h68.2399438c27.6237601,0,37.4228857-36.5707758,13.5000188-50.382675l-66.8547054-38.5986539c-1.7720642-1.0231037-1.0462031-3.73205,1.0000014-3.73205Z"/>
</svg>